<svg xmlns="http://www.w3.org/2000/svg" viewBox="0 0 1320 940" width="1320" height="940" font-family="Roboto, system-ui, -apple-system, 'Segoe UI', Helvetica, Arial, sans-serif"><defs><marker id="ah-0f9e8f" viewBox="0 0 10 10" refX="9" refY="5" markerWidth="6" markerHeight="6" orient="auto-start-reverse"><path d="M0,0 L10,5 L0,10 z" fill="#0f9e8f"/></marker><marker id="ah-2f4fe0" viewBox="0 0 10 10" refX="9" refY="5" markerWidth="6" markerHeight="6" orient="auto-start-reverse"><path d="M0,0 L10,5 L0,10 z" fill="#2f4fe0"/></marker><pattern id="dots" width="16" height="16" patternUnits="userSpaceOnUse"><circle cx="8" cy="8" r="1" fill="#000000" fill-opacity="0.1"/></pattern></defs><rect x="0" y="0" width="1320" height="940" rx="12" fill="#ffffff"/><rect x="0" y="0" width="1320" height="940" rx="12" fill="url(#dots)"/><path d="M660,222 V286" fill="none" stroke="#0f9e8f" stroke-width="1.8" stroke-linecap="round" stroke-linejoin="round"/>
<path d="M300,286 H1020" fill="none" stroke="#0f9e8f" stroke-width="1.8" stroke-linecap="round" stroke-linejoin="round"/>
<path d="M300,286 V318" fill="none" stroke="#0f9e8f" stroke-width="1.8" stroke-linecap="round" stroke-linejoin="round"/>
<path d="M300,318 V346" fill="none" stroke="#0f9e8f" stroke-width="1.8" stroke-linecap="round" stroke-linejoin="round" marker-end="url(#ah-0f9e8f)"/>
<path d="M300,442 V474" fill="none" stroke="#2f4fe0" stroke-width="1.8" stroke-linecap="round" stroke-linejoin="round"/>
<path d="M660,286 V318" fill="none" stroke="#0f9e8f" stroke-width="1.8" stroke-linecap="round" stroke-linejoin="round"/>
<path d="M660,318 V346" fill="none" stroke="#0f9e8f" stroke-width="1.8" stroke-linecap="round" stroke-linejoin="round" marker-end="url(#ah-0f9e8f)"/>
<path d="M660,442 V474" fill="none" stroke="#2f4fe0" stroke-width="1.8" stroke-linecap="round" stroke-linejoin="round"/>
<path d="M1020,286 V318" fill="none" stroke="#0f9e8f" stroke-width="1.8" stroke-linecap="round" stroke-linejoin="round"/>
<path d="M1020,318 V346" fill="none" stroke="#0f9e8f" stroke-width="1.8" stroke-linecap="round" stroke-linejoin="round" marker-end="url(#ah-0f9e8f)"/>
<path d="M1020,442 V474" fill="none" stroke="#2f4fe0" stroke-width="1.8" stroke-linecap="round" stroke-linejoin="round"/>
<path d="M300,474 H1020" fill="none" stroke="#2f4fe0" stroke-width="1.8" stroke-linecap="round" stroke-linejoin="round"/>
<path d="M400,474 V536" fill="none" stroke="#2f4fe0" stroke-width="1.8" stroke-linecap="round" stroke-linejoin="round" marker-end="url(#ah-2f4fe0)"/>
<path d="M920,474 V536" fill="none" stroke="#2f4fe0" stroke-width="1.8" stroke-linecap="round" stroke-linejoin="round" marker-end="url(#ah-2f4fe0)"/>
<text x="660" y="70.85" font-family="Roboto, system-ui, -apple-system, 'Segoe UI', Helvetica, Arial, sans-serif" font-size="22" font-weight="500" fill="#1b1f2a" text-anchor="middle" dominant-baseline="middle">How an outgoing integration payload is built</text>
<rect x="400" y="126" width="520" height="96" rx="10" fill="#ffffff" stroke="#bda9f9" stroke-width="1"/><rect x="416" y="157" width="34" height="34" rx="8" fill="#f3ecff" stroke="none"/><g transform="translate(423 164) scale(0.8333333333333334)" fill="none" stroke="#7c3aed" stroke-width="1.7" stroke-linecap="round" stroke-linejoin="round"><path d="M6.5 17.5 17.5 6.5"/><path d="M10.5 6.5h7v7"/></g><text x="463" y="164.5" font-family="Roboto, system-ui, -apple-system, 'Segoe UI', Helvetica, Arial, sans-serif" font-size="15" font-weight="500" fill="#1b1f2a" text-anchor="start" dominant-baseline="middle">Raw payload</text><text x="463" y="185" font-family="'Roboto Mono', ui-monospace, SFMono-Regular, Menlo, Consolas, 'Liberation Mono', monospace" font-size="12.5" font-weight="400" fill="#5f6675" text-anchor="start" dominant-baseline="middle">{"temperature":25}</text>
<rect x="515.36" y="311.65" width="289.28" height="15" rx="0" fill="#ffffff" stroke="none"/><text x="660" y="319.15" font-family="Roboto, system-ui, -apple-system, 'Segoe UI', Helvetica, Arial, sans-serif" font-size="11" font-weight="500" fill="#5f6675" text-anchor="middle" letter-spacing="1.1" dominant-baseline="middle">ENCODED PER — PAYLOAD CONTENT TYPE</text>
<rect x="140" y="346" width="320" height="96" rx="10" fill="#ffffff" stroke="#96ded3" stroke-width="1"/><g transform="translate(156 360) scale(0.7083333333333334)" fill="none" stroke="#0d8577" stroke-width="1.7" stroke-linecap="round" stroke-linejoin="round"><path d="M10.6 4.5c-2.4 0-1.9 4.3-1.9 5.3 0 1-1 2.2-2.6 2.2 1.6 0 2.6 1.2 2.6 2.2 0 1 -.5 5.3 1.9 5.3"/><path d="M13.4 4.5c2.4 0 1.9 4.3 1.9 5.3 0 1 1 2.2 2.6 2.2-1.6 0-2.6 1.2-2.6 2.2 0 1 .5 5.3-1.9 5.3"/></g><text x="182" y="368.5" font-family="Roboto, system-ui, -apple-system, 'Segoe UI', Helvetica, Arial, sans-serif" font-size="14.5" font-weight="500" fill="#1b1f2a" text-anchor="start" dominant-baseline="middle">JSON</text><text x="156" y="393.5" font-family="'Roboto Mono', ui-monospace, SFMono-Regular, Menlo, Consolas, 'Liberation Mono', monospace" font-size="12.5" font-weight="400" fill="#5f6675" text-anchor="start" dominant-baseline="middle">{"temperature":25}</text>
<rect x="500" y="346" width="320" height="96" rx="10" fill="#ffffff" stroke="#96ded3" stroke-width="1"/><g transform="translate(516 360) scale(0.7083333333333334)" fill="none" stroke="#0d8577" stroke-width="1.7" stroke-linecap="round" stroke-linejoin="round"><path d="M10.6 4.5c-2.4 0-1.9 4.3-1.9 5.3 0 1-1 2.2-2.6 2.2 1.6 0 2.6 1.2 2.6 2.2 0 1 -.5 5.3 1.9 5.3"/><path d="M13.4 4.5c2.4 0 1.9 4.3 1.9 5.3 0 1 1 2.2 2.6 2.2-1.6 0-2.6 1.2-2.6 2.2 0 1 .5 5.3-1.9 5.3"/></g><text x="542" y="368.5" font-family="Roboto, system-ui, -apple-system, 'Segoe UI', Helvetica, Arial, sans-serif" font-size="14.5" font-weight="500" fill="#1b1f2a" text-anchor="start" dominant-baseline="middle">Text</text><text x="516" y="393.5" font-family="'Roboto Mono', ui-monospace, SFMono-Regular, Menlo, Consolas, 'Liberation Mono', monospace" font-size="12.5" font-weight="400" fill="#5f6675" text-anchor="start" dominant-baseline="middle">"{\"temperature\":25}"</text>
<rect x="860" y="346" width="320" height="96" rx="10" fill="#ffffff" stroke="#96ded3" stroke-width="1"/><g transform="translate(876 360) scale(0.7083333333333334)" fill="none" stroke="#0d8577" stroke-width="1.7" stroke-linecap="round" stroke-linejoin="round"><path d="M10.6 4.5c-2.4 0-1.9 4.3-1.9 5.3 0 1-1 2.2-2.6 2.2 1.6 0 2.6 1.2 2.6 2.2 0 1 -.5 5.3 1.9 5.3"/><path d="M13.4 4.5c2.4 0 1.9 4.3 1.9 5.3 0 1 1 2.2 2.6 2.2-1.6 0-2.6 1.2-2.6 2.2 0 1 .5 5.3-1.9 5.3"/></g><text x="902" y="368.5" font-family="Roboto, system-ui, -apple-system, 'Segoe UI', Helvetica, Arial, sans-serif" font-size="14.5" font-weight="500" fill="#1b1f2a" text-anchor="start" dominant-baseline="middle">Binary</text><text x="876" y="393.5" font-family="'Roboto Mono', ui-monospace, SFMono-Regular, Menlo, Consolas, 'Liberation Mono', monospace" font-size="12.5" font-weight="400" fill="#5f6675" text-anchor="start" dominant-baseline="middle">"eyJ0ZW1wZXJhdHVyZSI6MjV9"</text>
<rect x="499.52" y="467.65" width="320.96000000000004" height="15" rx="0" fill="#ffffff" stroke="none"/><text x="660" y="475.15" font-family="Roboto, system-ui, -apple-system, 'Segoe UI', Helvetica, Arial, sans-serif" font-size="11" font-weight="500" fill="#5f6675" text-anchor="middle" letter-spacing="1.1" dominant-baseline="middle">PLACED PER — SEND ONLY MESSAGE PAYLOAD</text>
<rect x="140" y="536" width="520" height="96" rx="10" fill="#ffffff" stroke="#b6c2f7" stroke-width="1"/><rect x="156" y="550" width="31.18" height="22" rx="3" fill="#e6ecff" stroke="none"/><text x="171.59" y="561" font-family="'Roboto Mono', ui-monospace, SFMono-Regular, Menlo, Consolas, 'Liberation Mono', monospace" font-size="11.5" font-weight="400" fill="#1b1f2a" text-anchor="middle" letter-spacing="0.69" dominant-baseline="middle">ON</text><text x="197.18" y="561" font-family="Roboto, system-ui, -apple-system, 'Segoe UI', Helvetica, Arial, sans-serif" font-size="13.5" font-weight="400" fill="#5f6675" text-anchor="start" dominant-baseline="middle">body =</text><text x="156" y="589.5" font-family="'Roboto Mono', ui-monospace, SFMono-Regular, Menlo, Consolas, 'Liberation Mono', monospace" font-size="12.5" font-weight="400" fill="#1b1f2a" text-anchor="start" dominant-baseline="middle">the encoded payload</text>
<rect x="700" y="536" width="520" height="96" rx="10" fill="#ffffff" stroke="#b6c2f7" stroke-width="1"/><rect x="716" y="550" width="38.769999999999996" height="22" rx="3" fill="#e6ecff" stroke="none"/><text x="735.385" y="561" font-family="'Roboto Mono', ui-monospace, SFMono-Regular, Menlo, Consolas, 'Liberation Mono', monospace" font-size="11.5" font-weight="400" fill="#1b1f2a" text-anchor="middle" letter-spacing="0.69" dominant-baseline="middle">OFF</text><text x="764.77" y="561" font-family="Roboto, system-ui, -apple-system, 'Segoe UI', Helvetica, Arial, sans-serif" font-size="13.5" font-weight="400" fill="#5f6675" text-anchor="start" dominant-baseline="middle">body =</text><text x="716" y="589.5" font-family="'Roboto Mono', ui-monospace, SFMono-Regular, Menlo, Consolas, 'Liberation Mono', monospace" font-size="12.5" font-weight="400" fill="#1b1f2a" text-anchor="start" dominant-baseline="middle">{ "payload": &lt;encoded&gt;, "topicName": …,</text><text x="731" y="608.5" font-family="'Roboto Mono', ui-monospace, SFMono-Regular, Menlo, Consolas, 'Liberation Mono', monospace" font-size="12.5" font-weight="400" fill="#1b1f2a" text-anchor="start" dominant-baseline="middle">"clientId": …, "eventType": "PUBLISH_MSG", … }</text>
<rect x="140" y="672" width="1080" height="136" rx="12" fill="#ffffff" stroke="#d8dbe3" stroke-width="1"/>
<text x="158" y="697" font-family="Roboto, system-ui, -apple-system, 'Segoe UI', Helvetica, Arial, sans-serif" font-size="15" font-weight="500" fill="#1b1f2a" text-anchor="start" dominant-baseline="middle">If encoding fails</text>
<text x="300.6" y="697" font-family="Roboto, system-ui, -apple-system, 'Segoe UI', Helvetica, Arial, sans-serif" font-size="13" font-weight="400" fill="#5f6675" text-anchor="start" dominant-baseline="middle">the payload is not valid JSON, or not text — per Send as binary on parsing error</text>
<rect x="158" y="720" width="31.18" height="22" rx="3" fill="#eff1f6" stroke="none"/><text x="173.59" y="731" font-family="'Roboto Mono', ui-monospace, SFMono-Regular, Menlo, Consolas, 'Liberation Mono', monospace" font-size="11.5" font-weight="400" fill="#1b1f2a" text-anchor="middle" letter-spacing="0.69" dominant-baseline="middle">ON</text><text x="201.18" y="731" font-family="Roboto, system-ui, -apple-system, 'Segoe UI', Helvetica, Arial, sans-serif" font-size="13.5" font-weight="400" fill="#5f6675" text-anchor="start" dominant-baseline="middle">fall back to Base64 binary</text>
<rect x="158" y="752" width="38.769999999999996" height="22" rx="3" fill="#eff1f6" stroke="none"/><text x="177.385" y="763" font-family="'Roboto Mono', ui-monospace, SFMono-Regular, Menlo, Consolas, 'Liberation Mono', monospace" font-size="11.5" font-weight="400" fill="#1b1f2a" text-anchor="middle" letter-spacing="0.69" dominant-baseline="middle">OFF</text><text x="208.76999999999998" y="763" font-family="Roboto, system-ui, -apple-system, 'Segoe UI', Helvetica, Arial, sans-serif" font-size="13.5" font-weight="400" fill="#5f6675" text-anchor="start" dominant-baseline="middle">not sent, counted as failed</text>
<rect x="402.82" y="851" width="10" height="10" rx="2" fill="#96ded3" stroke="none"/><text x="420.82" y="856" font-family="Roboto, system-ui, -apple-system, 'Segoe UI', Helvetica, Arial, sans-serif" font-size="13" font-weight="400" fill="#5f6675" text-anchor="start" dominant-baseline="middle">Payload content type</text><rect x="580.02" y="851" width="10" height="10" rx="2" fill="#b6c2f7" stroke="none"/><text x="598.02" y="856" font-family="Roboto, system-ui, -apple-system, 'Segoe UI', Helvetica, Arial, sans-serif" font-size="13" font-weight="400" fill="#5f6675" text-anchor="start" dominant-baseline="middle">Send only message payload</text><rect x="791.02" y="851" width="10" height="10" rx="2" fill="#8b93a5" stroke="none"/><text x="809.02" y="856" font-family="Roboto, system-ui, -apple-system, 'Segoe UI', Helvetica, Arial, sans-serif" font-size="13" font-weight="400" fill="#5f6675" text-anchor="start" dominant-baseline="middle">Failure handling</text>
<text x="660" y="901.45" font-family="Roboto, system-ui, -apple-system, 'Segoe UI', Helvetica, Arial, sans-serif" font-size="14" font-weight="400" fill="#8a90a0" text-anchor="middle" dominant-baseline="middle">Two independent settings decide what the outgoing body looks like — the content type that encodes the payload, and whether anything is</text>
<text x="660" y="920.45" font-family="Roboto, system-ui, -apple-system, 'Segoe UI', Helvetica, Arial, sans-serif" font-size="14" font-weight="400" fill="#8a90a0" text-anchor="middle" dominant-baseline="middle">wrapped around it.</text></svg>
