<svg xmlns="http://www.w3.org/2000/svg" viewBox="0 0 1320 650" width="1320" height="650" font-family="Roboto, system-ui, -apple-system, 'Segoe UI', Helvetica, Arial, sans-serif"><defs><marker id="ah-d946ef" viewBox="0 0 10 10" refX="9" refY="5" markerWidth="6" markerHeight="6" orient="auto-start-reverse"><path d="M0,0 L10,5 L0,10 z" fill="#d946ef"/></marker><marker id="ah-14b8a6" viewBox="0 0 10 10" refX="9" refY="5" markerWidth="6" markerHeight="6" orient="auto-start-reverse"><path d="M0,0 L10,5 L0,10 z" fill="#14b8a6"/></marker><marker id="ah-6b6b80" viewBox="0 0 10 10" refX="9" refY="5" markerWidth="6" markerHeight="6" orient="auto-start-reverse"><path d="M0,0 L10,5 L0,10 z" fill="#6b6b80"/></marker><pattern id="dots" width="16" height="16" patternUnits="userSpaceOnUse"><circle cx="8" cy="8" r="1" fill="#ffffff" fill-opacity="0.1"/></pattern></defs><rect x="0" y="0" width="1320" height="650" rx="12" fill="#0b0b10"/><rect x="0" y="0" width="1320" height="650" rx="12" fill="url(#dots)"/><rect x="480" y="150" width="360" height="370" rx="14" fill="none" stroke="#3b6ef6" stroke-width="1" stroke-opacity="0.45" stroke-dasharray="5 5"/>
<path d="M332,240 H474" fill="none" stroke="#d946ef" stroke-width="1.8" stroke-linecap="round" stroke-linejoin="round" marker-end="url(#ah-d946ef)"/>
<path d="M1000,210 H846" fill="none" stroke="#d946ef" stroke-width="1.8" stroke-linecap="round" stroke-linejoin="round" marker-end="url(#ah-d946ef)"/>
<path d="M846,290 H994" fill="none" stroke="#d946ef" stroke-width="1.8" stroke-linecap="round" stroke-linejoin="round" marker-end="url(#ah-d946ef)"/>
<path d="M574,308 V340" fill="none" stroke="#14b8a6" stroke-width="1.8" stroke-linecap="round" stroke-linejoin="round" marker-start="url(#ah-14b8a6)" marker-end="url(#ah-14b8a6)"/>
<path d="M746,308 V340" fill="none" stroke="#6b6b80" stroke-width="1.8" stroke-linecap="round" stroke-linejoin="round" marker-start="url(#ah-6b6b80)" marker-end="url(#ah-6b6b80)"/>
<text x="660" y="66.85" font-family="Roboto, system-ui, -apple-system, 'Segoe UI', Helvetica, Arial, sans-serif" font-size="22" font-weight="500" fill="#e9e9f2" text-anchor="middle" dominant-baseline="middle">TBMQ cluster</text>
<rect x="102" y="165" width="87.5" height="15" rx="0" fill="#0b0b10" stroke="none"/><text x="110" y="172.5" font-family="Roboto, system-ui, -apple-system, 'Segoe UI', Helvetica, Arial, sans-serif" font-size="11" font-weight="500" fill="#8e8ea3" text-anchor="start" letter-spacing="1.1" dominant-baseline="middle">PUBLISHERS</text>
<rect x="1002" y="165" width="94.65" height="15" rx="0" fill="#0b0b10" stroke="none"/><text x="1010" y="172.5" font-family="Roboto, system-ui, -apple-system, 'Segoe UI', Helvetica, Arial, sans-serif" font-size="11" font-weight="500" fill="#8e8ea3" text-anchor="start" letter-spacing="1.1" dominant-baseline="middle">SUBSCRIBERS</text>
<rect x="110" y="190" width="220" height="130" rx="10" fill="#101017" stroke="#8b5cf6" stroke-width="1"/><rect x="105" y="185" width="220" height="130" rx="10" fill="#101017" stroke="#8b5cf6" stroke-width="1"/><rect x="100" y="180" width="220" height="130" rx="10" fill="#101017" stroke="#8b5cf6" stroke-width="1"/><rect x="116" y="196" width="34" height="34" rx="8" fill="#8b5cf6" fill-opacity="0.16" stroke="none"/><g transform="translate(124 204) scale(0.75)" fill="none" stroke="#c4b5fd" stroke-width="1.7" stroke-linecap="round" stroke-linejoin="round"><rect x="6" y="6" width="12" height="12" rx="2.5"/><rect x="9.5" y="9.5" width="5" height="5" rx="1"/><path d="M9 6V3.5M15 6V3.5M9 20.5V18M15 20.5V18M6 9H3.5M6 15H3.5M20.5 9H18M20.5 15H18"/></g><text x="116" y="248.6" font-family="Roboto, system-ui, -apple-system, 'Segoe UI', Helvetica, Arial, sans-serif" font-size="24" font-weight="500" fill="#e9e9f2" text-anchor="start" dominant-baseline="middle">500k</text><text x="116" y="274.7" font-family="Roboto, system-ui, -apple-system, 'Segoe UI', Helvetica, Arial, sans-serif" font-size="12.5" font-weight="400" fill="#8e8ea3" text-anchor="start" dominant-baseline="middle">MQTT clients · devices</text>
<rect x="1010" y="190" width="220" height="130" rx="10" fill="#101017" stroke="#8b5cf6" stroke-width="1"/><rect x="1005" y="185" width="220" height="130" rx="10" fill="#101017" stroke="#8b5cf6" stroke-width="1"/><rect x="1000" y="180" width="220" height="130" rx="10" fill="#101017" stroke="#8b5cf6" stroke-width="1"/><rect x="1016" y="196" width="34" height="34" rx="8" fill="#8b5cf6" fill-opacity="0.16" stroke="none"/><g transform="translate(1024 204) scale(0.75)" fill="none" stroke="#c4b5fd" stroke-width="1.7" stroke-linecap="round" stroke-linejoin="round"><rect x="3.5" y="5" width="17" height="4.5" rx="1.5"/><rect x="3.5" y="14.5" width="17" height="4.5" rx="1.5"/><circle cx="7" cy="7.25" r="0.9" fill="currentColor" stroke="none"/><circle cx="7" cy="16.75" r="0.9" fill="currentColor" stroke="none"/></g><text x="1016" y="248.6" font-family="Roboto, system-ui, -apple-system, 'Segoe UI', Helvetica, Arial, sans-serif" font-size="24" font-weight="500" fill="#e9e9f2" text-anchor="start" dominant-baseline="middle">500k</text><text x="1016" y="274.7" font-family="Roboto, system-ui, -apple-system, 'Segoe UI', Helvetica, Arial, sans-serif" font-size="12.5" font-weight="400" fill="#8e8ea3" text-anchor="start" dominant-baseline="middle">MQTT clients · persistent</text><text x="1016" y="289.7" font-family="Roboto, system-ui, -apple-system, 'Segoe UI', Helvetica, Arial, sans-serif" font-size="12.5" font-weight="400" fill="#8e8ea3" text-anchor="start" dominant-baseline="middle">devices</text>
<rect x="508" y="200" width="324" height="100" rx="10" fill="#101017" stroke="#3b6ef6" stroke-width="1"/><rect x="503" y="195" width="324" height="100" rx="10" fill="#101017" stroke="#3b6ef6" stroke-width="1"/><rect x="498" y="190" width="324" height="100" rx="10" fill="#101017" stroke="#3b6ef6" stroke-width="1"/><rect x="514" y="220" width="40" height="40" rx="8" fill="#3b6ef6" fill-opacity="0.18" stroke="none"/><g transform="translate(523 229) scale(0.9166666666666666)" fill="none" stroke="#93b4ff" stroke-width="1.7" stroke-linecap="round" stroke-linejoin="round"><circle cx="12" cy="12" r="3.2"/><circle cx="12" cy="3.6" r="1.7"/><circle cx="12" cy="20.4" r="1.7"/><circle cx="3.6" cy="12" r="1.7"/><circle cx="20.4" cy="12" r="1.7"/><path d="M12 5.3v3.5M12 15.2v3.5M5.3 12h3.5M15.2 12h3.5"/></g><text x="568" y="230" font-family="Roboto, system-ui, -apple-system, 'Segoe UI', Helvetica, Arial, sans-serif" font-size="17" font-weight="500" fill="#e9e9f2" text-anchor="start" dominant-baseline="middle">5× TBMQ nodes</text><text x="568" y="250" font-family="Roboto, system-ui, -apple-system, 'Segoe UI', Helvetica, Arial, sans-serif" font-size="13" font-weight="400" fill="#8e8ea3" text-anchor="start" dominant-baseline="middle">16 vCPU · 32 GiB RAM</text>
<rect x="508" y="354" width="152" height="120" rx="10" fill="#101017" stroke="#14b8a6" stroke-width="1"/><rect x="503" y="349" width="152" height="120" rx="10" fill="#101017" stroke="#14b8a6" stroke-width="1"/><rect x="498" y="344" width="152" height="120" rx="10" fill="#101017" stroke="#14b8a6" stroke-width="1"/><rect x="514" y="360" width="30" height="30" rx="8" fill="#14b8a6" fill-opacity="0.14" stroke="none"/><g transform="translate(522 368) scale(0.5833333333333334)" fill="none" stroke="#5eead4" stroke-width="1.7" stroke-linecap="round" stroke-linejoin="round"><circle cx="6" cy="12" r="2.3"/><circle cx="17.5" cy="6" r="2.3"/><circle cx="17.5" cy="18" r="2.3"/><path d="M8 10.9 15.6 6.9M8 13.1l7.6 4"/></g><text x="514" y="403.875" font-family="Roboto, system-ui, -apple-system, 'Segoe UI', Helvetica, Arial, sans-serif" font-size="15" font-weight="500" fill="#e9e9f2" text-anchor="start" dominant-baseline="middle">5× Kafka</text><text x="514" y="425.25" font-family="Roboto, system-ui, -apple-system, 'Segoe UI', Helvetica, Arial, sans-serif" font-size="12.5" font-weight="400" fill="#8e8ea3" text-anchor="start" dominant-baseline="middle">2 vCPU · 4 GiB RAM</text>
<rect x="680" y="354" width="152" height="120" rx="10" fill="#101017" stroke="#3a3a48" stroke-width="1"/><rect x="675" y="349" width="152" height="120" rx="10" fill="#101017" stroke="#3a3a48" stroke-width="1"/><rect x="670" y="344" width="152" height="120" rx="10" fill="#101017" stroke="#3a3a48" stroke-width="1"/><rect x="686" y="360" width="30" height="30" rx="8" fill="#ffffff" fill-opacity="0.07" stroke="none"/><g transform="translate(694 368) scale(0.5833333333333334)" fill="none" stroke="#a6a6bb" stroke-width="1.7" stroke-linecap="round" stroke-linejoin="round"><ellipse cx="12" cy="6" rx="7.5" ry="2.6"/><path d="M4.5 6v5c0 1.4 3.4 2.6 7.5 2.6s7.5-1.2 7.5-2.6V6M4.5 11v5c0 1.4 3.4 2.6 7.5 2.6s7.5-1.2 7.5-2.6v-5"/></g><text x="686" y="403.875" font-family="Roboto, system-ui, -apple-system, 'Segoe UI', Helvetica, Arial, sans-serif" font-size="15" font-weight="500" fill="#e9e9f2" text-anchor="start" dominant-baseline="middle">11× Redis</text><text x="686" y="425.25" font-family="Roboto, system-ui, -apple-system, 'Segoe UI', Helvetica, Arial, sans-serif" font-size="12.5" font-weight="400" fill="#8e8ea3" text-anchor="start" dominant-baseline="middle">2 vCPU · 4 GiB RAM</text>
<text x="348" y="218.775" font-family="Roboto, system-ui, -apple-system, 'Segoe UI', Helvetica, Arial, sans-serif" font-size="13" font-weight="500" fill="#e9e9f2" text-anchor="start" dominant-baseline="middle">Publish</text><text x="348" y="257.5" font-family="Roboto, system-ui, -apple-system, 'Segoe UI', Helvetica, Arial, sans-serif" font-size="12.5" font-weight="400" fill="#8e8ea3" text-anchor="start" dominant-baseline="middle">500k msg/s</text><text x="348" y="277.5" font-family="Roboto, system-ui, -apple-system, 'Segoe UI', Helvetica, Arial, sans-serif" font-size="12.5" font-weight="400" fill="#8e8ea3" text-anchor="start" dominant-baseline="middle">QoS 1</text><text x="348" y="297.5" font-family="Roboto, system-ui, -apple-system, 'Segoe UI', Helvetica, Arial, sans-serif" font-size="12.5" font-weight="400" fill="#8e8ea3" text-anchor="start" dominant-baseline="middle">1 msg/s per publisher</text><text x="348" y="317.5" font-family="Roboto, system-ui, -apple-system, 'Segoe UI', Helvetica, Arial, sans-serif" font-size="12.5" font-weight="400" fill="#8e8ea3" text-anchor="start" dominant-baseline="middle">62 bytes/msg</text>
<text x="860" y="190.775" font-family="Roboto, system-ui, -apple-system, 'Segoe UI', Helvetica, Arial, sans-serif" font-size="13" font-weight="500" fill="#e9e9f2" text-anchor="start" dominant-baseline="middle">Subscribe</text><text x="860" y="229.5" font-family="Roboto, system-ui, -apple-system, 'Segoe UI', Helvetica, Arial, sans-serif" font-size="12.5" font-weight="400" fill="#8e8ea3" text-anchor="start" dominant-baseline="middle">QoS 1</text>
<text x="860" y="270.775" font-family="Roboto, system-ui, -apple-system, 'Segoe UI', Helvetica, Arial, sans-serif" font-size="13" font-weight="500" fill="#e9e9f2" text-anchor="start" dominant-baseline="middle">Deliver</text><text x="860" y="309.5" font-family="Roboto, system-ui, -apple-system, 'Segoe UI', Helvetica, Arial, sans-serif" font-size="12.5" font-weight="400" fill="#8e8ea3" text-anchor="start" dominant-baseline="middle">500k msg/s</text><text x="860" y="329.5" font-family="Roboto, system-ui, -apple-system, 'Segoe UI', Helvetica, Arial, sans-serif" font-size="12.5" font-weight="400" fill="#8e8ea3" text-anchor="start" dominant-baseline="middle">1 msg/s per subscriber</text>
<rect x="473.08" y="561" width="10" height="10" rx="2" fill="#8b5cf6" stroke="none"/><text x="491.08" y="566" font-family="Roboto, system-ui, -apple-system, 'Segoe UI', Helvetica, Arial, sans-serif" font-size="13" font-weight="400" fill="#8e8ea3" text-anchor="start" dominant-baseline="middle">MQTT clients</text><rect x="596.2" y="561" width="10" height="10" rx="2" fill="#3b6ef6" stroke="none"/><text x="614.2" y="566" font-family="Roboto, system-ui, -apple-system, 'Segoe UI', Helvetica, Arial, sans-serif" font-size="13" font-weight="400" fill="#8e8ea3" text-anchor="start" dominant-baseline="middle">TBMQ nodes</text><rect x="705.8000000000001" y="561" width="10" height="10" rx="2" fill="#14b8a6" stroke="none"/><text x="723.8000000000001" y="566" font-family="Roboto, system-ui, -apple-system, 'Segoe UI', Helvetica, Arial, sans-serif" font-size="13" font-weight="400" fill="#8e8ea3" text-anchor="start" dominant-baseline="middle">Kafka</text><rect x="781.6000000000001" y="561" width="10" height="10" rx="2" fill="#6b6b80" stroke="none"/><text x="799.6000000000001" y="566" font-family="Roboto, system-ui, -apple-system, 'Segoe UI', Helvetica, Arial, sans-serif" font-size="13" font-weight="400" fill="#8e8ea3" text-anchor="start" dominant-baseline="middle">Storage</text>
<text x="660" y="611.45" font-family="Roboto, system-ui, -apple-system, 'Segoe UI', Helvetica, Arial, sans-serif" font-size="14" font-weight="400" fill="#6a6a7d" text-anchor="middle" dominant-baseline="middle">Persistent devices at QoS 1: every message is written to Redis before delivery, and 500k subscribers each receive one message per second.</text></svg>
