<svg xmlns="http://www.w3.org/2000/svg" viewBox="0 0 900 580" width="900" height="580" font-family="system-ui, -apple-system, 'Segoe UI', Roboto, Helvetica, Arial, sans-serif"><defs><marker id="ah-3a4250" viewBox="0 0 10 10" refX="8.5" refY="5" markerWidth="7" markerHeight="7" orient="auto-start-reverse"><path d="M0 0 L10 5 L0 10 z" fill="#3a4250"/></marker><pattern id="dots" width="22" height="22" patternUnits="userSpaceOnUse"><circle cx="1.4" cy="1.4" r="1.4" fill="#c3c7cd" opacity="0.55"/></pattern></defs><rect x="0" y="0" width="900" height="580" fill="#ffffff"/><rect x="0" y="0" width="900" height="580" fill="url(#dots)"/><path d="M 246 432 L 410 346" fill="none" stroke="#3a4250" stroke-width="1.9" stroke-dasharray="none" stroke-linecap="round" stroke-linejoin="round" marker-end="url(#ah-3a4250)"/><circle cx="354" cy="383" r="11" fill="#ffffff" stroke="#3a4250" stroke-width="1.6"/><text x="354" y="383" font-family="system-ui, -apple-system, 'Segoe UI', Roboto, Helvetica, Arial, sans-serif" font-size="12" font-weight="700" fill="#3a4250" text-anchor="middle" opacity="1" dominant-baseline="middle">1</text><rect x="295.55" y="356" width="64.9" height="22" rx="7" fill="#ffffff" stroke="#c8ccd2" stroke-width="1.2"/><text x="328" y="367" font-family="system-ui, -apple-system, 'Segoe UI', Roboto, Helvetica, Arial, sans-serif" font-size="11.5" font-weight="600" fill="#585b62" text-anchor="middle" opacity="1" dominant-baseline="middle">PUBLISH</text>
<path d="M 395 250 L 395 136" fill="none" stroke="#3a4250" stroke-width="1.9" stroke-dasharray="none" stroke-linecap="round" stroke-linejoin="round" marker-end="url(#ah-3a4250)"/><circle cx="395" cy="193" r="11" fill="#ffffff" stroke="#3a4250" stroke-width="1.6"/><text x="395" y="193" font-family="system-ui, -apple-system, 'Segoe UI', Roboto, Helvetica, Arial, sans-serif" font-size="12" font-weight="700" fill="#3a4250" text-anchor="middle" opacity="1" dominant-baseline="middle">2</text><rect x="335.25" y="182" width="51.5" height="22" rx="7" fill="#ffffff" stroke="#c8ccd2" stroke-width="1.2"/><text x="361" y="193" font-family="system-ui, -apple-system, 'Segoe UI', Roboto, Helvetica, Arial, sans-serif" font-size="11.5" font-weight="600" fill="#585b62" text-anchor="middle" opacity="1" dominant-baseline="middle">store</text>
<path d="M 505 136 L 505 250" fill="none" stroke="#3a4250" stroke-width="1.9" stroke-dasharray="none" stroke-linecap="round" stroke-linejoin="round" marker-end="url(#ah-3a4250)"/><circle cx="505" cy="193" r="11" fill="#ffffff" stroke="#3a4250" stroke-width="1.6"/><text x="505" y="193" font-family="system-ui, -apple-system, 'Segoe UI', Roboto, Helvetica, Arial, sans-serif" font-size="12" font-weight="700" fill="#3a4250" text-anchor="middle" opacity="1" dominant-baseline="middle">3</text><rect x="506.55" y="182" width="64.9" height="22" rx="7" fill="#ffffff" stroke="#c8ccd2" stroke-width="1.2"/><text x="539" y="193" font-family="system-ui, -apple-system, 'Segoe UI', Roboto, Helvetica, Arial, sans-serif" font-size="11.5" font-weight="600" fill="#585b62" text-anchor="middle" opacity="1" dominant-baseline="middle">consume</text>
<path d="M 384 346 L 96 432" fill="none" stroke="#3a4250" stroke-width="1.9" stroke-dasharray="6 5" stroke-linecap="round" stroke-linejoin="round" marker-end="url(#ah-3a4250)"/><circle cx="240" cy="389" r="11" fill="#ffffff" stroke="#3a4250" stroke-width="1.6"/><text x="240" y="389" font-family="system-ui, -apple-system, 'Segoe UI', Roboto, Helvetica, Arial, sans-serif" font-size="12" font-weight="700" fill="#3a4250" text-anchor="middle" opacity="1" dominant-baseline="middle">4</text>
<path d="M 506 346 L 703 432" fill="none" stroke="#3a4250" stroke-width="1.9" stroke-dasharray="none" stroke-linecap="round" stroke-linejoin="round" marker-end="url(#ah-3a4250)"/><circle cx="626.5" cy="395" r="11" fill="#ffffff" stroke="#3a4250" stroke-width="1.6"/><text x="626.5" y="395" font-family="system-ui, -apple-system, 'Segoe UI', Roboto, Helvetica, Arial, sans-serif" font-size="12" font-weight="700" fill="#3a4250" text-anchor="middle" opacity="1" dominant-baseline="middle">5</text><rect x="572.05" y="356" width="64.9" height="22" rx="7" fill="#ffffff" stroke="#c8ccd2" stroke-width="1.2"/><text x="604.5" y="367" font-family="system-ui, -apple-system, 'Segoe UI', Roboto, Helvetica, Arial, sans-serif" font-size="11.5" font-weight="600" fill="#585b62" text-anchor="middle" opacity="1" dominant-baseline="middle">deliver</text>
<rect x="340" y="44" width="220" height="92" rx="12" fill="#eaecfe" stroke="#3d50f5" stroke-width="1.6"/><g transform="translate(353 79) scale(0.9166666666666666)" fill="none" stroke="#2c39bd" stroke-width="1.7" stroke-linecap="round" stroke-linejoin="round"><circle cx="6" cy="12" r="2.3"/><circle cx="17.5" cy="6" r="2.3"/><circle cx="17.5" cy="18" r="2.3"/><path d="M8 10.9 15.6 6.9M8 13.1l7.6 4"/></g><text x="470" y="82.5" font-family="ui-monospace, SFMono-Regular, Menlo, Consolas, 'Liberation Mono', 'Courier New', monospace" font-size="13" font-weight="650" fill="#2c39bd" text-anchor="middle" opacity="1" dominant-baseline="middle">tbmq.msg.all</text><text x="470" y="97.5" font-family="system-ui, -apple-system, 'Segoe UI', Roboto, Helvetica, Arial, sans-serif" font-size="11" font-weight="500" fill="#585b62" text-anchor="middle" opacity="1" dominant-baseline="middle">every PUBLISH lands here first</text>
<rect x="350" y="250" width="200" height="96" rx="12" fill="#e7f7ee" stroke="#1f8b4d" stroke-width="1.6"/><g transform="translate(364 286) scale(1)" fill="none" stroke="#166c37" stroke-width="1.7" stroke-linecap="round" stroke-linejoin="round"><rect x="3.5" y="3.5" width="7.5" height="7.5" rx="1.6"/><rect x="13" y="3.5" width="7.5" height="7.5" rx="1.6"/><rect x="3.5" y="13" width="7.5" height="7.5" rx="1.6"/><rect x="13" y="13" width="7.5" height="7.5" rx="1.6"/></g><text x="469" y="298" font-family="system-ui, -apple-system, 'Segoe UI', Roboto, Helvetica, Arial, sans-serif" font-size="15" font-weight="650" fill="#166c37" text-anchor="middle" opacity="1" dominant-baseline="middle">TBMQ node</text>
<rect x="96" y="432" width="190" height="92" rx="12" fill="#f6f8fb" stroke="#c1c6cd" stroke-width="1.6"/><g transform="translate(110 466) scale(1)" fill="none" stroke="#3a4250" stroke-width="1.7" stroke-linecap="round" stroke-linejoin="round"><rect x="6" y="6" width="12" height="12" rx="2.5"/><rect x="9.5" y="9.5" width="5" height="5" rx="1"/><path d="M9 6V3.5M15 6V3.5M9 20.5V18M15 20.5V18M6 9H3.5M6 15H3.5M20.5 9H18M20.5 15H18"/></g><text x="210" y="470" font-family="system-ui, -apple-system, 'Segoe UI', Roboto, Helvetica, Arial, sans-serif" font-size="15" font-weight="650" fill="#3a4250" text-anchor="middle" opacity="1" dominant-baseline="middle">Device</text><text x="210" y="486" font-family="system-ui, -apple-system, 'Segoe UI', Roboto, Helvetica, Arial, sans-serif" font-size="11.5" font-weight="500" fill="#585b62" text-anchor="middle" opacity="1" dominant-baseline="middle">publisher</text>
<rect x="614" y="432" width="210" height="92" rx="12" fill="#f6f8fb" stroke="#c1c6cd" stroke-width="1.6"/><g transform="translate(628 466) scale(1)" fill="none" stroke="#3a4250" stroke-width="1.7" stroke-linecap="round" stroke-linejoin="round"><rect x="6" y="6" width="12" height="12" rx="2.5"/><rect x="9.5" y="9.5" width="5" height="5" rx="1"/><path d="M9 6V3.5M15 6V3.5M9 20.5V18M15 20.5V18M6 9H3.5M6 15H3.5M20.5 9H18M20.5 15H18"/></g><text x="738" y="470" font-family="system-ui, -apple-system, 'Segoe UI', Roboto, Helvetica, Arial, sans-serif" font-size="15" font-weight="650" fill="#3a4250" text-anchor="middle" opacity="1" dominant-baseline="middle">Subscriber</text><text x="738" y="486" font-family="system-ui, -apple-system, 'Segoe UI', Roboto, Helvetica, Arial, sans-serif" font-size="11.5" font-weight="500" fill="#585b62" text-anchor="middle" opacity="1" dominant-baseline="middle">non-persistent DEVICE</text>
<text x="450" y="538" font-family="system-ui, -apple-system, 'Segoe UI', Roboto, Helvetica, Arial, sans-serif" font-size="12.5" font-weight="500" fill="#797c82" text-anchor="middle" opacity="1" dominant-baseline="middle">Non-persistent subscriber: the message is delivered straight from memory — nothing is stored for the client.</text>
<path d="M 40 562 L 66 562" stroke="#3a4250" stroke-width="1.9" stroke-dasharray="none" stroke-linecap="round" marker-end="url(#ah-3a4250)"/><text x="74" y="562" font-family="system-ui, -apple-system, 'Segoe UI', Roboto, Helvetica, Arial, sans-serif" font-size="12" font-weight="500" fill="#585b62" text-anchor="start" opacity="1" dominant-baseline="middle">message flow</text><path d="M 179.2 562 L 205.2 562" stroke="#3a4250" stroke-width="1.9" stroke-dasharray="6 5" stroke-linecap="round" marker-end="url(#ah-3a4250)"/><text x="213.2" y="562" font-family="system-ui, -apple-system, 'Segoe UI', Roboto, Helvetica, Arial, sans-serif" font-size="12" font-weight="500" fill="#585b62" text-anchor="start" opacity="1" dominant-baseline="middle">ack (after Kafka persist)</text></svg>
