<svg xmlns="http://www.w3.org/2000/svg" viewBox="0 0 1140 650" width="1140" height="650" font-family="system-ui, -apple-system, 'Segoe UI', Roboto, Helvetica, Arial, sans-serif"><defs><marker id="ah-c3c7cd" viewBox="0 0 10 10" refX="8.5" refY="5" markerWidth="7" markerHeight="7" orient="auto-start-reverse"><path d="M0 0 L10 5 L0 10 z" fill="#c3c7cd"/></marker><marker id="ah-e6a94b" viewBox="0 0 10 10" refX="8.5" refY="5" markerWidth="7" markerHeight="7" orient="auto-start-reverse"><path d="M0 0 L10 5 L0 10 z" fill="#e6a94b"/></marker><pattern id="dots" width="22" height="22" patternUnits="userSpaceOnUse"><circle cx="1.4" cy="1.4" r="1.4" fill="#33363d" opacity="0.7"/></pattern></defs><rect x="0" y="0" width="1140" height="650" fill="#16171a"/><rect x="0" y="0" width="1140" height="650" fill="url(#dots)"/><path d="M 330 500 L 330 376" fill="none" stroke="#c3c7cd" stroke-width="1.9" stroke-dasharray="none" stroke-linecap="round" stroke-linejoin="round" marker-end="url(#ah-c3c7cd)"/><circle cx="330" cy="458" r="11" fill="#16171a" stroke="#c3c7cd" stroke-width="1.6"/><text x="330" y="458" font-family="system-ui, -apple-system, 'Segoe UI', Roboto, Helvetica, Arial, sans-serif" font-size="12" font-weight="700" fill="#c3c7cd" text-anchor="middle" opacity="1" dominant-baseline="middle">1</text><rect x="297.55" y="405" width="64.9" height="22" rx="7" fill="#1e1f23" stroke="#3b3e45" stroke-width="1.2"/><text x="330" y="416" font-family="system-ui, -apple-system, 'Segoe UI', Roboto, Helvetica, Arial, sans-serif" font-size="11.5" font-weight="600" fill="#a6a8ae" text-anchor="middle" opacity="1" dominant-baseline="middle">PUBLISH</text>
<path d="M 285 292 L 270 140" fill="none" stroke="#c3c7cd" stroke-width="1.9" stroke-dasharray="none" stroke-linecap="round" stroke-linejoin="round" marker-end="url(#ah-c3c7cd)"/><circle cx="277.5" cy="216" r="11" fill="#16171a" stroke="#c3c7cd" stroke-width="1.6"/><text x="277.5" y="216" font-family="system-ui, -apple-system, 'Segoe UI', Roboto, Helvetica, Arial, sans-serif" font-size="12" font-weight="700" fill="#c3c7cd" text-anchor="middle" opacity="1" dominant-baseline="middle">2</text><rect x="217.75" y="205" width="51.5" height="22" rx="7" fill="#1e1f23" stroke="#3b3e45" stroke-width="1.2"/><text x="243.5" y="216" font-family="system-ui, -apple-system, 'Segoe UI', Roboto, Helvetica, Arial, sans-serif" font-size="11.5" font-weight="600" fill="#a6a8ae" text-anchor="middle" opacity="1" dominant-baseline="middle">store</text>
<path d="M 330 140 L 375 292" fill="none" stroke="#c3c7cd" stroke-width="1.9" stroke-dasharray="none" stroke-linecap="round" stroke-linejoin="round" marker-end="url(#ah-c3c7cd)"/><circle cx="352.5" cy="216" r="11" fill="#16171a" stroke="#c3c7cd" stroke-width="1.6"/><text x="352.5" y="216" font-family="system-ui, -apple-system, 'Segoe UI', Roboto, Helvetica, Arial, sans-serif" font-size="12" font-weight="700" fill="#c3c7cd" text-anchor="middle" opacity="1" dominant-baseline="middle">3</text><rect x="354.05" y="205" width="64.9" height="22" rx="7" fill="#1e1f23" stroke="#3b3e45" stroke-width="1.2"/><text x="386.5" y="216" font-family="system-ui, -apple-system, 'Segoe UI', Roboto, Helvetica, Arial, sans-serif" font-size="11.5" font-weight="600" fill="#a6a8ae" text-anchor="middle" opacity="1" dominant-baseline="middle">consume</text>
<path d="M 480 334 L 600 334 L 600 200 L 630 200 L 630 140" fill="none" stroke="#e6a94b" stroke-width="1.9" stroke-dasharray="none" stroke-linecap="round" stroke-linejoin="round" marker-end="url(#ah-e6a94b)"/><circle cx="600" cy="200" r="11" fill="#16171a" stroke="#c3c7cd" stroke-width="1.6"/><text x="600" y="200" font-family="system-ui, -apple-system, 'Segoe UI', Roboto, Helvetica, Arial, sans-serif" font-size="12" font-weight="700" fill="#c3c7cd" text-anchor="middle" opacity="1" dominant-baseline="middle">4</text>
<path d="M 870 140 L 870 292" fill="none" stroke="#e6a94b" stroke-width="1.9" stroke-dasharray="none" stroke-linecap="round" stroke-linejoin="round" marker-end="url(#ah-e6a94b)"/><circle cx="860" cy="238" r="11" fill="#16171a" stroke="#c3c7cd" stroke-width="1.6"/><text x="860" y="238" font-family="system-ui, -apple-system, 'Segoe UI', Roboto, Helvetica, Arial, sans-serif" font-size="12" font-weight="700" fill="#c3c7cd" text-anchor="middle" opacity="1" dominant-baseline="middle">5</text><rect x="797.35" y="183" width="145.3" height="22" rx="7" fill="#1e1f23" stroke="#3b3e45" stroke-width="1.2"/><text x="870" y="194" font-family="system-ui, -apple-system, 'Segoe UI', Roboto, Helvetica, Arial, sans-serif" font-size="11.5" font-weight="600" fill="#a6a8ae" text-anchor="middle" opacity="1" dominant-baseline="middle">route to owner node</text>
<path d="M 870 376 L 870 500" fill="none" stroke="#c3c7cd" stroke-width="1.9" stroke-dasharray="none" stroke-linecap="round" stroke-linejoin="round" marker-end="url(#ah-c3c7cd)"/><circle cx="870" cy="458" r="11" fill="#16171a" stroke="#c3c7cd" stroke-width="1.6"/><text x="870" y="458" font-family="system-ui, -apple-system, 'Segoe UI', Roboto, Helvetica, Arial, sans-serif" font-size="12" font-weight="700" fill="#c3c7cd" text-anchor="middle" opacity="1" dominant-baseline="middle">6</text><rect x="837.55" y="405" width="64.9" height="22" rx="7" fill="#1e1f23" stroke="#3b3e45" stroke-width="1.2"/><text x="870" y="416" font-family="system-ui, -apple-system, 'Segoe UI', Roboto, Helvetica, Arial, sans-serif" font-size="11.5" font-weight="600" fill="#a6a8ae" text-anchor="middle" opacity="1" dominant-baseline="middle">deliver</text>
<rect x="150" y="44" width="300" height="96" rx="12" fill="#182148" stroke="#6b8cff" stroke-width="1.6"/><g transform="translate(163 81) scale(0.9166666666666666)" fill="none" stroke="#aebfff" stroke-width="1.7" stroke-linecap="round" stroke-linejoin="round"><circle cx="6" cy="12" r="2.3"/><circle cx="17.5" cy="6" r="2.3"/><circle cx="17.5" cy="18" r="2.3"/><path d="M8 10.9 15.6 6.9M8 13.1l7.6 4"/></g><text x="320" y="84.5" font-family="ui-monospace, SFMono-Regular, Menlo, Consolas, 'Liberation Mono', 'Courier New', monospace" font-size="13" font-weight="650" fill="#aebfff" text-anchor="middle" opacity="1" dominant-baseline="middle">tbmq.msg.all</text><text x="320" y="99.5" font-family="system-ui, -apple-system, 'Segoe UI', Roboto, Helvetica, Arial, sans-serif" font-size="11" font-weight="500" fill="#a6a8ae" text-anchor="middle" opacity="1" dominant-baseline="middle">shared consumer group across nodes</text>
<rect x="590" y="44" width="440" height="96" rx="12" fill="#182148" stroke="#6b8cff" stroke-width="1.6"/><g transform="translate(603 81) scale(0.9166666666666666)" fill="none" stroke="#aebfff" stroke-width="1.7" stroke-linecap="round" stroke-linejoin="round"><circle cx="6" cy="12" r="2.3"/><circle cx="17.5" cy="6" r="2.3"/><circle cx="17.5" cy="18" r="2.3"/><path d="M8 10.9 15.6 6.9M8 13.1l7.6 4"/></g><text x="830" y="84.5" font-family="ui-monospace, SFMono-Regular, Menlo, Consolas, 'Liberation Mono', 'Courier New', monospace" font-size="13" font-weight="650" fill="#aebfff" text-anchor="middle" opacity="1" dominant-baseline="middle">tbmq.msg.downlink.basic.$SERVICE_ID</text><text x="830" y="99.5" font-family="system-ui, -apple-system, 'Segoe UI', Roboto, Helvetica, Arial, sans-serif" font-size="11" font-weight="500" fill="#a6a8ae" text-anchor="middle" opacity="1" dominant-baseline="middle">per-node routing topic</text>
<rect x="120" y="258" width="900" height="150" rx="16" fill="none" stroke="#37d67f" stroke-width="1.5" stroke-dasharray="7 5" opacity="0.9"/><rect x="138" y="245.5" width="115.19999999999999" height="24" rx="12" fill="#12301f" stroke="#37d67f" stroke-width="1.3"/><text x="195.6" y="257.5" font-family="system-ui, -apple-system, 'Segoe UI', Roboto, Helvetica, Arial, sans-serif" font-size="12" font-weight="700" fill="#74e6a4" text-anchor="middle" opacity="1" dominant-baseline="middle">TBMQ cluster</text>
<text x="570" y="333" font-family="system-ui, -apple-system, 'Segoe UI', Roboto, Helvetica, Arial, sans-serif" font-size="26" font-weight="700" fill="#83868c" text-anchor="middle" opacity="1" dominant-baseline="middle">···</text>
<rect x="180" y="292" width="300" height="84" rx="12" fill="#12301f" stroke="#37d67f" stroke-width="1.6"/><g transform="translate(194 322) scale(1)" fill="none" stroke="#74e6a4" stroke-width="1.7" stroke-linecap="round" stroke-linejoin="round"><rect x="3.5" y="3.5" width="7.5" height="7.5" rx="1.6"/><rect x="13" y="3.5" width="7.5" height="7.5" rx="1.6"/><rect x="3.5" y="13" width="7.5" height="7.5" rx="1.6"/><rect x="13" y="13" width="7.5" height="7.5" rx="1.6"/></g><text x="349" y="334" font-family="system-ui, -apple-system, 'Segoe UI', Roboto, Helvetica, Arial, sans-serif" font-size="15" font-weight="650" fill="#74e6a4" text-anchor="middle" opacity="1" dominant-baseline="middle">TBMQ node A</text>
<rect x="720" y="292" width="300" height="84" rx="12" fill="#12301f" stroke="#37d67f" stroke-width="1.6"/><g transform="translate(734 322) scale(1)" fill="none" stroke="#74e6a4" stroke-width="1.7" stroke-linecap="round" stroke-linejoin="round"><rect x="3.5" y="3.5" width="7.5" height="7.5" rx="1.6"/><rect x="13" y="3.5" width="7.5" height="7.5" rx="1.6"/><rect x="3.5" y="13" width="7.5" height="7.5" rx="1.6"/><rect x="13" y="13" width="7.5" height="7.5" rx="1.6"/></g><text x="889" y="334" font-family="system-ui, -apple-system, 'Segoe UI', Roboto, Helvetica, Arial, sans-serif" font-size="15" font-weight="650" fill="#74e6a4" text-anchor="middle" opacity="1" dominant-baseline="middle">TBMQ node B</text>
<rect x="210" y="500" width="240" height="92" rx="12" fill="#212327" stroke="#41454d" stroke-width="1.6"/><g transform="translate(224 534) scale(1)" fill="none" stroke="#c3c7cd" stroke-width="1.7" stroke-linecap="round" stroke-linejoin="round"><rect x="6" y="6" width="12" height="12" rx="2.5"/><rect x="9.5" y="9.5" width="5" height="5" rx="1"/><path d="M9 6V3.5M15 6V3.5M9 20.5V18M15 20.5V18M6 9H3.5M6 15H3.5M20.5 9H18M20.5 15H18"/></g><text x="349" y="538" font-family="system-ui, -apple-system, 'Segoe UI', Roboto, Helvetica, Arial, sans-serif" font-size="15" font-weight="650" fill="#c3c7cd" text-anchor="middle" opacity="1" dominant-baseline="middle">Device</text><text x="349" y="554" font-family="system-ui, -apple-system, 'Segoe UI', Roboto, Helvetica, Arial, sans-serif" font-size="11.5" font-weight="500" fill="#a6a8ae" text-anchor="middle" opacity="1" dominant-baseline="middle">publisher → node A</text>
<rect x="720" y="500" width="300" height="92" rx="12" fill="#212327" stroke="#41454d" stroke-width="1.6"/><g transform="translate(734 534) scale(1)" fill="none" stroke="#c3c7cd" stroke-width="1.7" stroke-linecap="round" stroke-linejoin="round"><rect x="6" y="6" width="12" height="12" rx="2.5"/><rect x="9.5" y="9.5" width="5" height="5" rx="1"/><path d="M9 6V3.5M15 6V3.5M9 20.5V18M15 20.5V18M6 9H3.5M6 15H3.5M20.5 9H18M20.5 15H18"/></g><text x="889" y="538" font-family="system-ui, -apple-system, 'Segoe UI', Roboto, Helvetica, Arial, sans-serif" font-size="15" font-weight="650" fill="#c3c7cd" text-anchor="middle" opacity="1" dominant-baseline="middle">Subscriber</text><text x="889" y="554" font-family="system-ui, -apple-system, 'Segoe UI', Roboto, Helvetica, Arial, sans-serif" font-size="11.5" font-weight="500" fill="#a6a8ae" text-anchor="middle" opacity="1" dominant-baseline="middle">non-persistent → node B</text>
<text x="570" y="612" font-family="system-ui, -apple-system, 'Segoe UI', Roboto, Helvetica, Arial, sans-serif" font-size="12.5" font-weight="500" fill="#83868c" text-anchor="middle" opacity="1" dominant-baseline="middle">A message may be consumed by any node; the owner node of the subscriber is reached via tbmq.msg.downlink.basic.$SERVICE_ID.</text>
<path d="M 40 634 L 66 634" stroke="#c3c7cd" stroke-width="1.9" stroke-dasharray="none" stroke-linecap="round" marker-end="url(#ah-c3c7cd)"/><text x="74" y="634" font-family="system-ui, -apple-system, 'Segoe UI', Roboto, Helvetica, Arial, sans-serif" font-size="12" font-weight="500" fill="#a6a8ae" text-anchor="start" opacity="1" dominant-baseline="middle">message flow</text><path d="M 179.2 634 L 205.2 634" stroke="#c3c7cd" stroke-width="1.9" stroke-dasharray="6 5" stroke-linecap="round" marker-end="url(#ah-c3c7cd)"/><text x="213.2" y="634" font-family="system-ui, -apple-system, 'Segoe UI', Roboto, Helvetica, Arial, sans-serif" font-size="12" font-weight="500" fill="#a6a8ae" text-anchor="start" opacity="1" dominant-baseline="middle">ack (after Kafka persist)</text><path d="M 404.2 634 L 430.2 634" stroke="#e6a94b" stroke-width="1.9" stroke-dasharray="none" stroke-linecap="round" marker-end="url(#ah-e6a94b)"/><text x="438.2" y="634" font-family="system-ui, -apple-system, 'Segoe UI', Roboto, Helvetica, Arial, sans-serif" font-size="12" font-weight="500" fill="#a6a8ae" text-anchor="start" opacity="1" dominant-baseline="middle">cross-node forwarding</text></svg>
